<?xml version="1.0" standalone="no"?>
<!DOCTYPE svg PUBLIC "-//W3C//DTD SVG 20010904//EN"
 "http://www.w3.org/TR/2001/REC-SVG-20010904/DTD/svg10.dtd">
<svg version="1.0" xmlns="http://www.w3.org/2000/svg"
 width="1500.000000pt" height="935.000000pt" viewBox="0 0 1500.000000 935.000000"
 preserveAspectRatio="xMidYMid meet">

<g transform="translate(0.000000,935.000000) scale(0.100000,-0.100000)"
fill="#000000" stroke="none">
<path d="M1120 4675 l0 -3185 3180 0 3180 0 0 1000 0 1000 -85 0 -85 0 0 -910
0 -910 -3010 0 -3010 0 0 3005 0 3005 3010 0 3010 0 0 -910 0 -910 85 0 85 0
0 1000 0 1000 -3180 0 -3180 0 0 -3185z"/>
<path d="M3920 5645 c-86 -19 -230 -92 -306 -154 -152 -126 -244 -303 -244
-470 0 -141 63 -233 185 -270 37 -12 79 -21 93 -21 l25 0 -22 24 c-40 43 -63
138 -63 266 -1 193 34 304 126 395 48 48 128 94 187 108 l26 7 -14 -88 c-22
-135 -179 -1138 -223 -1422 -22 -140 -43 -267 -46 -282 l-6 -28 79 0 78 0 38
243 c21 133 56 352 77 487 21 135 51 323 66 418 15 95 29 171 31 168 2 -2 15
-66 28 -142 13 -77 44 -258 70 -404 25 -146 64 -371 86 -500 22 -129 42 -243
45 -252 5 -16 21 -18 143 -18 l138 0 42 208 c151 757 230 1135 234 1122 4 -13
78 -969 93 -1205 9 -138 -8 -125 159 -125 135 0 145 1 145 19 0 10 -18 247
-39 527 -22 280 -54 701 -72 937 l-33 427 -148 0 c-81 0 -148 -2 -148 -4 0 -5
-288 -1436 -295 -1465 -3 -13 -8 -22 -10 -19 -2 2 -31 161 -64 353 -33 193
-87 505 -120 695 -33 190 -63 367 -66 394 -7 42 -12 50 -41 62 -51 21 -160 26
-234 9z"/>
<path d="M11054 5550 c-126 -29 -172 -206 -77 -292 26 -24 87 -48 120 -48 44
1 108 34 137 72 95 125 -26 305 -180 268z"/>
<path d="M9905 5514 c-49 -7 -105 -16 -122 -19 l-33 -6 0 -668 0 -668 -39 -61
c-53 -81 -110 -135 -179 -169 -52 -25 -68 -28 -167 -28 -102 0 -113 2 -157 28
-61 36 -94 80 -124 166 -65 186 -30 559 66 704 43 64 84 87 153 87 63 0 105
-26 127 -80 16 -38 9 -115 -14 -161 -17 -34 -17 -34 9 -56 34 -30 97 -31 125
-3 30 30 40 63 40 134 0 133 -57 230 -163 277 -45 20 -68 24 -167 24 -110 0
-118 -1 -182 -33 -206 -101 -307 -354 -295 -736 5 -144 3 -165 -15 -214 -11
-30 -39 -73 -62 -98 -36 -38 -48 -44 -82 -44 -31 0 -46 6 -66 28 -52 56 -52
61 -56 595 l-3 497 -130 0 -129 0 0 -55 0 -54 -44 44 c-74 74 -191 94 -318 55
-121 -37 -229 -151 -295 -311 -48 -115 -66 -214 -69 -389 l-3 -155 -56 -44
c-30 -24 -58 -41 -61 -38 -4 4 -11 52 -16 108 -10 129 -66 374 -198 880 l-10
36 -130 -26 c-122 -24 -130 -27 -134 -51 -2 -14 -12 -70 -22 -125 -11 -59 -53
-203 -104 -355 -74 -216 -92 -260 -121 -291 -42 -43 -59 -95 -59 -178 0 -70
-15 -107 -60 -145 -40 -33 -100 -36 -131 -5 -54 54 -54 55 -57 597 l-3 502
-130 0 -129 0 0 -62 0 -63 -24 35 c-13 20 -48 49 -77 65 -50 28 -62 30 -149
29 -123 0 -184 -27 -274 -116 -74 -74 -144 -206 -177 -333 -29 -111 -37 -369
-15 -473 20 -96 74 -206 131 -270 105 -117 295 -161 432 -102 55 24 138 102
173 163 l27 48 23 -63 c44 -122 149 -190 268 -173 86 12 146 52 204 134 16 22
16 22 70 -32 72 -73 141 -99 263 -101 149 -2 286 55 356 149 15 20 55 58 90
85 35 27 79 61 96 76 l33 26 10 -28 c64 -172 178 -276 335 -305 151 -28 302
46 375 185 14 25 28 46 31 46 4 0 9 -17 13 -39 7 -49 61 -128 105 -158 48 -32
107 -46 166 -38 106 13 177 71 240 193 l32 63 26 -44 c33 -55 122 -138 180
-166 111 -54 259 -62 375 -21 101 36 223 131 300 234 l22 29 0 -137 0 -136
130 0 130 0 0 415 c0 407 0 416 23 488 45 140 114 207 214 207 65 0 109 -28
136 -88 21 -45 22 -64 27 -417 5 -359 6 -372 29 -429 60 -149 201 -224 346
-182 67 20 139 82 176 151 13 25 26 45 29 45 4 0 11 -15 18 -34 21 -58 66
-110 123 -141 47 -26 64 -30 134 -30 130 0 207 52 275 185 29 57 73 188 84
253 l7 37 -49 0 -49 0 -12 -53 c-17 -77 -63 -169 -100 -200 -45 -37 -102 -37
-137 0 -51 55 -54 86 -54 610 l0 483 -130 0 -130 0 0 -423 c0 -455 -3 -484
-54 -586 -52 -101 -143 -143 -194 -88 -47 50 -53 86 -50 285 6 360 3 495 -11
552 -42 168 -138 255 -296 267 -137 11 -228 -31 -306 -137 l-44 -61 -3 356
c-1 195 -6 354 -10 354 -4 -1 -47 -7 -97 -15z m-3906 -648 c15 -8 42 -31 60
-51 l32 -37 -3 -346 c-3 -342 -3 -348 -27 -392 -69 -132 -183 -182 -291 -127
-106 53 -146 177 -137 426 7 223 49 359 140 459 69 74 160 102 226 68z m2158
-2 c19 -9 45 -33 59 -53 l24 -36 0 -331 c0 -377 -2 -391 -76 -473 -74 -83
-154 -102 -242 -60 -55 27 -94 80 -118 161 -25 85 -26 356 -1 468 55 246 213
390 354 324z m-1121 -350 c54 -224 66 -288 71 -385 6 -132 -5 -172 -61 -212
-46 -33 -158 -37 -215 -8 -68 35 -139 165 -78 145 64 -22 117 17 117 87 0 42
-11 71 -40 104 -17 19 -15 27 46 215 35 107 68 225 75 263 7 37 14 65 16 63 2
-2 33 -124 69 -272z"/>
</g>
</svg>
